<svg xmlns="http://www.w3.org/2000/svg" version="1.1" xmlns:xlink="http://www.w3.org/1999/xlink" width="512" height="512" x="0" y="0" viewBox="0 0 24 24" style="enable-background:new 0 0 512 512" xml:space="preserve" class=""><g><g data-name="Layer 6"><path d="M21 9a1 1 0 0 1-1-1V4h-4a1 1 0 0 1 0-2h4a2 2 0 0 1 2 2v4a1 1 0 0 1-1 1zM20 22h-4a1 1 0 0 1 0-2h4v-4a1 1 0 0 1 2 0v4a2 2 0 0 1-2 2zM8 22H4a2 2 0 0 1-2-2v-4a1 1 0 0 1 2 0v4h4a1 1 0 0 1 0 2zM3 9a1 1 0 0 1-1-1V4a2 2 0 0 1 2-2h4a1 1 0 0 1 0 2H4v4a1 1 0 0 1-1 1z" fill="#000000" opacity="1" data-original="#000000" class=""></path></g></g></svg>